M48
; DRILL file {KiCad 7.0.6-7.0.6~ubuntu20.04.1} date 2023年08月01日 14時44分27秒
; FORMAT={-:-/ absolute / inch / decimal}
; #@! TF.CreationDate,2023-08-01T14:44:27+09:00
; #@! TF.GenerationSoftware,Kicad,Pcbnew,7.0.6-7.0.6~ubuntu20.04.1
; #@! TF.FileFunction,Plated,1,2,PTH
FMAT,2
INCH
; #@! TA.AperFunction,Plated,PTH,ComponentDrill
T1C0.0394
; #@! TA.AperFunction,Plated,PTH,ComponentDrill
T2C0.1260
%
G90
G05
T1
X2.9Y-1.5
X2.9Y-1.6
X2.9Y-1.7
X2.9Y-1.8
X2.9Y-1.9
X2.9Y-2.0
X2.9Y-2.1
X2.9Y-2.2
X2.9Y-2.3
X2.9Y-2.4
X2.9Y-2.5
X2.9Y-4.9
X2.9Y-5.0
X2.9Y-5.1
X2.9Y-5.2
X2.9Y-5.3
X2.9Y-5.4
X2.9Y-5.5
X2.9Y-5.6
X2.9Y-5.7
X2.9Y-5.8
X2.9Y-5.9
X2.9Y-6.0
X2.9Y-6.1
X4.95Y-7.95
X4.95Y-8.05
X4.95Y-8.15
X4.95Y-8.25
X4.95Y-8.35
X4.95Y-8.45
X5.0Y-1.5
X5.0Y-1.6
X5.0Y-1.7
X5.0Y-1.8
X5.0Y-1.9
X5.0Y-2.0
X5.0Y-2.1
X5.0Y-2.2
X5.0Y-2.3
X5.0Y-2.4
X5.0Y-2.5
X5.0Y-2.6
X5.0Y-2.7
X5.0Y-2.8
X5.0Y-2.9
X5.0Y-3.0
X5.0Y-3.1
X5.0Y-3.2
X5.0Y-3.3
X5.0Y-4.9
X5.0Y-5.0
X5.0Y-5.1
X5.0Y-5.2
X5.0Y-5.3
X5.0Y-5.4
X5.0Y-5.5
X5.0Y-5.6
X5.0Y-5.7
X5.0Y-5.8
X5.0Y-5.9
X5.0Y-6.0
X5.0Y-6.1
X5.0Y-6.2
X5.0Y-6.3
X5.0Y-6.4
X5.0Y-6.5
X5.0Y-6.6
X5.0Y-6.7
X7.2441Y-1.4685
X7.2441Y-1.5776
X7.2441Y-1.6866
X7.2441Y-1.7957
X7.2441Y-1.9047
X7.2441Y-2.0138
X7.2441Y-2.1228
X7.2441Y-2.2319
X7.2441Y-2.3409
X7.2441Y-2.45
X7.2441Y-2.5591
X7.2441Y-2.6681
X7.2441Y-2.7772
X7.2441Y-2.8862
X7.2441Y-2.9953
X7.2441Y-3.1043
X7.2441Y-3.2134
X7.2441Y-3.3224
X7.2441Y-3.4315
X7.2441Y-4.8685
X7.2441Y-4.9776
X7.2441Y-5.0866
X7.2441Y-5.1957
X7.2441Y-5.3047
X7.2441Y-5.4138
X7.2441Y-5.5228
X7.2441Y-5.6319
X7.2441Y-5.7409
X7.2441Y-5.85
X7.2441Y-5.9591
X7.2441Y-6.0681
X7.2441Y-6.1772
X7.2441Y-6.2862
X7.2441Y-6.3953
X7.2441Y-6.5043
X7.2441Y-6.6134
X7.2441Y-6.7224
X7.2441Y-6.8315
X7.3382Y-7.95
X7.3382Y-8.0591
X7.3382Y-8.1681
X7.3382Y-8.2772
X7.3382Y-8.3862
X7.3559Y-1.523
X7.3559Y-1.6321
X7.3559Y-1.7411
X7.3559Y-1.8502
X7.3559Y-1.9593
X7.3559Y-2.0683
X7.3559Y-2.1774
X7.3559Y-2.2864
X7.3559Y-2.3955
X7.3559Y-2.5045
X7.3559Y-2.6136
X7.3559Y-2.7226
X7.3559Y-2.8317
X7.3559Y-2.9407
X7.3559Y-3.0498
X7.3559Y-3.1589
X7.3559Y-3.2679
X7.3559Y-3.377
X7.3559Y-4.923
X7.3559Y-5.0321
X7.3559Y-5.1411
X7.3559Y-5.2502
X7.3559Y-5.3593
X7.3559Y-5.4683
X7.3559Y-5.5774
X7.3559Y-5.6864
X7.3559Y-5.7955
X7.3559Y-5.9045
X7.3559Y-6.0136
X7.3559Y-6.1226
X7.3559Y-6.2317
X7.3559Y-6.3407
X7.3559Y-6.4498
X7.3559Y-6.5589
X7.3559Y-6.6679
X7.3559Y-6.777
X7.45Y-8.0045
X7.45Y-8.1136
X7.45Y-8.2226
X7.45Y-8.3317
T2
X7.3Y-1.2
X7.3Y-3.7
X7.3Y-4.6
X7.3Y-7.1
X7.35Y-7.676
X7.35Y-8.6602
T1
G00X3.2Y-6.6567
M15
G01X3.2Y-6.7433
M16
G05
G00X3.2Y-7.2252
M15
G01X3.2Y-7.3118
M16
G05
G00X3.3772Y-6.889
M15
G01X3.2906Y-6.889
M16
G05
G00X3.3772Y-7.4575
M15
G01X3.2906Y-7.4575
M16
G05
G00X3.448Y-6.6488
M15
G01X3.448Y-6.7512
M16
G05
G00X3.448Y-7.2173
M15
G01X3.448Y-7.3197
M16
G05
T0
M30
