%TF.GenerationSoftware,KiCad,Pcbnew,7.0.2-6a45011f42~172~ubuntu20.04.1*%
%TF.CreationDate,2023-07-07T12:58:52+09:00*%
%TF.ProjectId,Veronte68BreakOut,5665726f-6e74-4653-9638-427265616b4f,V1.1*%
%TF.SameCoordinates,Original*%
%TF.FileFunction,Soldermask,Top*%
%TF.FilePolarity,Negative*%
%FSLAX46Y46*%
G04 Gerber Fmt 4.6, Leading zero omitted, Abs format (unit mm)*
G04 Created by KiCad (PCBNEW 7.0.2-6a45011f42~172~ubuntu20.04.1) date 2023-07-07 12:58:52*
%MOMM*%
%LPD*%
G01*
G04 APERTURE LIST*
%ADD10R,1.700000X1.700000*%
%ADD11O,1.700000X1.700000*%
%ADD12C,4.000000*%
%ADD13R,1.600000X1.600000*%
%ADD14C,1.600000*%
%ADD15R,2.000000X4.600000*%
%ADD16O,2.000000X4.200000*%
%ADD17O,4.200000X2.000000*%
G04 APERTURE END LIST*
D10*
%TO.C,J8*%
X125730000Y-201930000D03*
D11*
X125730000Y-204470000D03*
X125730000Y-207010000D03*
X125730000Y-209550000D03*
X125730000Y-212090000D03*
X125730000Y-214630000D03*
%TD*%
D10*
%TO.C,J7*%
X73660000Y-124460000D03*
D11*
X73660000Y-127000000D03*
X73660000Y-129540000D03*
X73660000Y-132080000D03*
X73660000Y-134620000D03*
X73660000Y-137160000D03*
X73660000Y-139700000D03*
X73660000Y-142240000D03*
X73660000Y-144780000D03*
X73660000Y-147320000D03*
X73660000Y-149860000D03*
X73660000Y-152400000D03*
X73660000Y-154940000D03*
%TD*%
D10*
%TO.C,J6*%
X127000000Y-124460000D03*
D11*
X127000000Y-127000000D03*
X127000000Y-129540000D03*
X127000000Y-132080000D03*
X127000000Y-134620000D03*
X127000000Y-137160000D03*
X127000000Y-139700000D03*
X127000000Y-142240000D03*
X127000000Y-144780000D03*
X127000000Y-147320000D03*
X127000000Y-149860000D03*
X127000000Y-152400000D03*
X127000000Y-154940000D03*
X127000000Y-157480000D03*
X127000000Y-160020000D03*
X127000000Y-162560000D03*
X127000000Y-165100000D03*
X127000000Y-167640000D03*
X127000000Y-170180000D03*
%TD*%
D12*
%TO.C,J2*%
X185420000Y-180340000D03*
X185420000Y-116840000D03*
D13*
X184000000Y-123660000D03*
D14*
X184000000Y-126430000D03*
X184000000Y-129200000D03*
X184000000Y-131970000D03*
X184000000Y-134740000D03*
X184000000Y-137510000D03*
X184000000Y-140280000D03*
X184000000Y-143050000D03*
X184000000Y-145820000D03*
X184000000Y-148590000D03*
X184000000Y-151360000D03*
X184000000Y-154130000D03*
X184000000Y-156900000D03*
X184000000Y-159670000D03*
X184000000Y-162440000D03*
X184000000Y-165210000D03*
X184000000Y-167980000D03*
X184000000Y-170750000D03*
X184000000Y-173520000D03*
X186840000Y-125045000D03*
X186840000Y-127815000D03*
X186840000Y-130585000D03*
X186840000Y-133355000D03*
X186840000Y-136125000D03*
X186840000Y-138895000D03*
X186840000Y-141665000D03*
X186840000Y-144435000D03*
X186840000Y-147205000D03*
X186840000Y-149975000D03*
X186840000Y-152745000D03*
X186840000Y-155515000D03*
X186840000Y-158285000D03*
X186840000Y-161055000D03*
X186840000Y-163825000D03*
X186840000Y-166595000D03*
X186840000Y-169365000D03*
X186840000Y-172135000D03*
%TD*%
D15*
%TO.C,J10*%
X87580000Y-184620000D03*
D16*
X81280000Y-184620000D03*
D17*
X84680000Y-189420000D03*
%TD*%
D10*
%TO.C,J4*%
X127000000Y-38100000D03*
D11*
X127000000Y-40640000D03*
X127000000Y-43180000D03*
X127000000Y-45720000D03*
X127000000Y-48260000D03*
X127000000Y-50800000D03*
X127000000Y-53340000D03*
X127000000Y-55880000D03*
X127000000Y-58420000D03*
X127000000Y-60960000D03*
X127000000Y-63500000D03*
X127000000Y-66040000D03*
X127000000Y-68580000D03*
X127000000Y-71120000D03*
X127000000Y-73660000D03*
X127000000Y-76200000D03*
X127000000Y-78740000D03*
X127000000Y-81280000D03*
X127000000Y-83820000D03*
%TD*%
D12*
%TO.C,J1*%
X185420000Y-93980000D03*
X185420000Y-30480000D03*
D13*
X184000000Y-37300000D03*
D14*
X184000000Y-40070000D03*
X184000000Y-42840000D03*
X184000000Y-45610000D03*
X184000000Y-48380000D03*
X184000000Y-51150000D03*
X184000000Y-53920000D03*
X184000000Y-56690000D03*
X184000000Y-59460000D03*
X184000000Y-62230000D03*
X184000000Y-65000000D03*
X184000000Y-67770000D03*
X184000000Y-70540000D03*
X184000000Y-73310000D03*
X184000000Y-76080000D03*
X184000000Y-78850000D03*
X184000000Y-81620000D03*
X184000000Y-84390000D03*
X184000000Y-87160000D03*
X186840000Y-38685000D03*
X186840000Y-41455000D03*
X186840000Y-44225000D03*
X186840000Y-46995000D03*
X186840000Y-49765000D03*
X186840000Y-52535000D03*
X186840000Y-55305000D03*
X186840000Y-58075000D03*
X186840000Y-60845000D03*
X186840000Y-63615000D03*
X186840000Y-66385000D03*
X186840000Y-69155000D03*
X186840000Y-71925000D03*
X186840000Y-74695000D03*
X186840000Y-77465000D03*
X186840000Y-80235000D03*
X186840000Y-83005000D03*
X186840000Y-85775000D03*
%TD*%
D10*
%TO.C,J5*%
X73660000Y-38100000D03*
D11*
X73660000Y-40640000D03*
X73660000Y-43180000D03*
X73660000Y-45720000D03*
X73660000Y-48260000D03*
X73660000Y-50800000D03*
X73660000Y-53340000D03*
X73660000Y-55880000D03*
X73660000Y-58420000D03*
X73660000Y-60960000D03*
X73660000Y-63500000D03*
%TD*%
D14*
%TO.C,J3*%
X189230000Y-211625000D03*
X189230000Y-208855000D03*
X189230000Y-206085000D03*
X189230000Y-203315000D03*
X186390000Y-213010000D03*
X186390000Y-210240000D03*
X186390000Y-207470000D03*
X186390000Y-204700000D03*
D13*
X186390000Y-201930000D03*
D12*
X186690000Y-194970000D03*
X186690000Y-219970000D03*
%TD*%
D15*
%TO.C,J11*%
X87580000Y-170180000D03*
D16*
X81280000Y-170180000D03*
D17*
X84680000Y-174980000D03*
%TD*%
M02*
